<?xml version="1.0" standalone="no"?>
<!DOCTYPE svg PUBLIC "-//W3C//DTD SVG 20010904//EN"
 "http://www.w3.org/TR/2001/REC-SVG-20010904/DTD/svg10.dtd">
<svg version="1.0" xmlns="http://www.w3.org/2000/svg"
 width="221.000000pt" height="228.000000pt" viewBox="0 0 221.000000 228.000000"
 preserveAspectRatio="xMidYMid meet">

<g transform="translate(0.000000,228.000000) scale(0.100000,-0.100000)"
fill="#000000" stroke="none">
<path d="M715 1280 l-80 -5 -3 -337 -3 -338 100 0 101 0 0 339 c0 389 13 349
-115 341z"/>
<path d="M1218 1249 c-43 -21 -78 -43 -78 -48 0 -6 30 -67 66 -138 37 -70 104
-203 150 -295 l85 -168 84 42 c47 24 85 46 85 51 0 5 -39 84 -86 175 -48 92
-116 224 -151 295 -35 70 -67 127 -71 127 -4 -1 -42 -19 -84 -41z"/>
<path d="M902 973 c2 -309 6 -274 10 105 2 111 0 202 -4 202 -5 0 -7 -138 -6
-307z"/>
<path d="M1058 1273 c7 -3 16 -2 19 1 4 3 -2 6 -13 5 -11 0 -14 -3 -6 -6z"/>
<path d="M1074 880 c0 -113 2 -159 3 -102 2 56 2 148 0 205 -1 56 -3 10 -3
-103z"/>
<path d="M941 654 c0 -11 3 -14 6 -6 3 7 2 16 -1 19 -3 4 -6 -2 -5 -13z"/>
<path d="M1067 643 c-13 -12 -7 -33 8 -33 8 0 15 5 15 10 0 6 -5 10 -11 10 -5
0 -7 5 -4 10 7 11 2 13 -8 3z"/>
<path d="M541 621 c-12 -12 -21 -32 -21 -46 l0 -25 605 0 605 0 0 25 c0 14 -9
34 -20 45 -31 31 -132 26 -210 -11 -63 -30 -59 -30 -98 16 -11 13 -36 15 -150
13 -136 -3 -136 -3 -142 -28 -6 -25 -7 -25 -115 -25 -106 0 -110 1 -113 23 -2
12 -9 22 -15 22 -7 0 -17 -10 -22 -22 -9 -21 -18 -23 -95 -26 -105 -4 -128 2
-132 31 -4 31 -50 35 -77 8z"/>
<path d="M374 497 c0 -6 -3 -12 -9 -12 -5 0 -9 3 -7 8 1 4 -2 7 -8 7 -5 0 -9
-19 -9 -42 1 -24 3 -35 6 -25 2 9 7 17 10 17 4 0 16 -8 27 -17 l21 -18 -20 24
c-14 17 -16 25 -7 28 14 5 16 29 3 37 -5 3 -8 0 -7 -7z"/>
<path d="M900 502 c-11 -5 -14 -16 -9 -42 6 -35 6 -35 8 -4 0 16 6 35 13 42
13 13 11 14 -12 4z"/>
<path d="M1176 494 c-19 -19 -12 -34 15 -34 26 0 24 -19 -3 -30 -14 -5 -17 -9
-7 -9 18 -1 39 18 39 36 0 7 -11 13 -26 13 -22 0 -25 2 -14 15 7 8 17 12 23 8
6 -3 7 -1 3 5 -9 15 -11 15 -30 -4z"/>
<path d="M1443 503 c-14 -5 -18 -83 -5 -83 5 0 7 14 4 30 -2 17 1 37 8 45 13
16 13 16 -7 8z"/>
<path d="M1521 496 c-16 -19 -21 -50 -10 -67 15 -24 44 3 44 41 0 37 -15 49
-34 26z m27 -28 c-2 -21 -8 -33 -18 -33 -17 0 -20 21 -8 48 14 28 29 19 26
-15z"/>
<path d="M424 466 c1 -26 6 -41 16 -43 10 -3 11 -2 3 4 -6 4 -13 24 -16 43 -4
34 -4 33 -3 -4z"/>
<path d="M463 465 c0 -22 2 -30 4 -17 2 12 2 30 0 40 -3 9 -5 -1 -4 -23z"/>
<path d="M501 460 c1 -42 1 -43 9 -16 6 17 5 36 0 45 -7 11 -9 3 -9 -29z"/>
<path d="M547 481 c-3 -11 1 -22 7 -24 7 -3 13 5 14 19 2 29 -14 32 -21 5z"/>
<path d="M600 464 c-7 -19 -9 -38 -6 -41 3 -4 6 1 6 10 0 22 26 22 40 0 11
-17 11 -17 6 0 -3 10 -6 21 -6 23 0 2 -7 4 -15 4 -8 0 -15 5 -15 11 0 5 5 7
10 4 6 -3 10 -2 10 4 0 27 -20 17 -30 -15z"/>
<path d="M673 460 c0 -25 2 -35 4 -22 2 12 11 22 18 22 7 0 16 -10 18 -22 2
-13 4 -3 4 22 1 25 -1 37 -4 28 -2 -10 -11 -18 -18 -18 -7 0 -16 8 -18 18 -3
9 -5 -3 -4 -28z"/>
<path d="M840 460 c0 -22 2 -40 4 -40 2 0 6 18 8 40 2 22 0 40 -4 40 -5 0 -8
-18 -8 -40z"/>
<path d="M940 460 c0 -35 3 -40 23 -39 16 1 18 2 5 6 -10 2 -18 11 -18 18 0 7
8 16 18 18 15 4 15 5 -2 6 -12 1 -16 6 -12 16 3 8 1 15 -4 15 -6 0 -10 -18
-10 -40z"/>
<path d="M1011 458 c1 -24 3 -35 6 -25 2 9 7 17 10 17 4 0 16 -8 27 -17 l21
-18 -19 23 c-15 17 -17 25 -8 34 7 7 12 17 12 23 0 5 -5 2 -11 -7 -12 -22 -33
-24 -25 -3 3 8 1 15 -4 15 -6 0 -9 -19 -9 -42z"/>
<path d="M1101 469 c-6 -18 -9 -35 -6 -37 3 -3 5 0 5 6 0 16 27 15 34 0 3 -7
4 1 0 17 -8 45 -20 50 -33 14z"/>
<path d="M1323 460 c0 -25 2 -35 4 -22 2 12 2 32 0 45 -2 12 -4 2 -4 -23z"/>
<path d="M1361 460 c1 -40 2 -42 8 -15 7 29 7 29 15 8 12 -36 26 -27 25 15 -1
31 -2 33 -8 12 l-7 -24 -17 24 -17 24 1 -44z"/>
<path d="M1473 490 c2 -8 0 -25 -4 -38 -5 -13 -5 -21 0 -18 14 9 19 43 9 57
-8 11 -9 11 -5 -1z"/>
<path d="M1590 488 c0 -9 5 -20 10 -23 13 -8 13 5 0 25 -8 13 -10 13 -10 -2z"/>
<path d="M1617 473 c-3 -16 -1 -32 4 -37 5 -6 9 4 9 27 0 44 -6 48 -13 10z"/>
<path d="M1660 460 c0 -32 4 -40 18 -39 10 0 12 3 5 6 -19 7 -16 31 5 36 16 4
16 5 0 6 -10 0 -18 5 -18 10 0 5 8 12 18 14 13 4 11 5 -5 6 -20 1 -23 -4 -23
-39z"/>
<path d="M1730 480 c0 -14 7 -20 21 -20 12 0 19 -5 16 -12 -2 -7 -12 -12 -21
-12 -9 1 -16 -2 -16 -7 0 -10 12 -11 34 -3 24 9 20 44 -5 44 -15 0 -19 5 -15
15 3 8 1 15 -4 15 -6 0 -10 -9 -10 -20z"/>
<path d="M1813 460 c0 -25 2 -35 4 -22 2 12 2 32 0 45 -2 12 -4 2 -4 -23z"/>
<path d="M1850 464 c-7 -19 -9 -38 -6 -41 3 -4 6 1 6 10 0 22 26 22 40 0 11
-17 11 -17 6 0 -3 10 -6 23 -6 28 0 4 -7 6 -15 3 -8 -4 -15 -1 -15 5 0 6 5 11
10 11 6 0 10 5 10 10 0 24 -19 7 -30 -26z"/>
<path d="M520 446 c0 -9 5 -16 10 -16 6 0 10 4 10 9 0 6 -4 13 -10 16 -5 3
-10 -1 -10 -9z"/>
</g>
</svg>
